<svg height="512pt" viewBox="0 0 512 512" width="512pt" xmlns="http://www.w3.org/2000/svg"><path d="m512 512h-512v-512h240c8.835938 0 16 7.164062 16 16s-7.164062 16-16 16h-208v448h448v-208c0-8.835938 7.164062-16 16-16s16 7.164062 16 16zm0 0" fill="#000000"/><g fill="#000000"><path d="m320 16c0 8.835938 7.164062 16 16 16h121.375l-278.175781 278.160156 22.640625 22.640625 278.160156-278.175781v121.375c0 8.835938 7.164062 16 16 16s16-7.164062 16-16v-176h-176c-8.835938 0-16 7.164062-16 16zm0 0"/><path d="m88.71875 400.664062 22.628906-22.625 22.625 22.625-22.625 22.628907zm0 0"/><path d="m133.972656 355.398438 22.625-22.625 22.628906 22.625-22.628906 22.628906zm0 0"/></g></svg>