<svg id="Capa_1" data-name="Capa 1" xmlns="http://www.w3.org/2000/svg" viewBox="0 0 510.01 460.66"><defs><style>.cls-1{fill:#0073aa;}.cls-2{fill:#e58442;}.cls-3{fill:#6c3;}</style></defs><title>treeviz</title><rect x="320.74" y="80.71" width="46.06" height="202.96" transform="translate(-33.9 279.87) rotate(-43)"/><rect x="0.63" y="193.46" width="336.32" height="46.06" transform="translate(-103.73 259.57) rotate(-61.83)"/><path class="cls-1" d="M439,353.89a73,73,0,1,1,73-73A73.12,73.12,0,0,1,439,353.89Z" transform="translate(-1.99 -3.52)"/><path class="cls-2" d="M241.82,149.58a73,73,0,1,1,73-73A73.11,73.11,0,0,1,241.82,149.58Z" transform="translate(-1.99 -3.52)"/><path class="cls-3" d="M75,464.17a73,73,0,1,1,73-73A73.11,73.11,0,0,1,75,464.17Z" transform="translate(-1.99 -3.52)"/></svg>